<svg width="62" height="62" viewBox="0 0 62 62" fill="none" xmlns="http://www.w3.org/2000/svg">
<g id="uis:calender">
<path id="Vector" d="M5.16667 49.0834C5.16667 53.4751 8.525 56.8334 12.9167 56.8334H49.0833C53.475 56.8334 56.8333 53.4751 56.8333 49.0834V28.4167H5.16667V49.0834ZM49.0833 10.3334H43.9167V7.75008C43.9167 6.20008 42.8833 5.16675 41.3333 5.16675C39.7833 5.16675 38.75 6.20008 38.75 7.75008V10.3334H23.25V7.75008C23.25 6.20008 22.2167 5.16675 20.6667 5.16675C19.1167 5.16675 18.0833 6.20008 18.0833 7.75008V10.3334H12.9167C8.525 10.3334 5.16667 13.6917 5.16667 18.0834V23.2501H56.8333V18.0834C56.8333 13.6917 53.475 10.3334 49.0833 10.3334Z" fill="white"/>
</g>
</svg>
