<svg width="32" height="32" viewBox="0 0 32 32" fill="none" xmlns="http://www.w3.org/2000/svg">
<g id="tdesign:call-1">
<path id="Vector" d="M21.4027 2.38257L22.6907 2.73057C24.2658 3.15681 25.7017 3.98856 26.8551 5.14288C28.0085 6.29721 28.8391 7.73375 29.264 9.30923L29.6107 10.5959L27.0373 11.2906L26.6893 10.0039C26.3857 8.87853 25.7923 7.85245 24.9683 7.028C24.1443 6.20355 23.1185 5.60954 21.9933 5.30524L20.7067 4.9559L21.4027 2.38257ZM1.33334 2.66657H12.7733L14.756 11.5866L12.276 14.0666C13.7335 16.3365 15.6631 18.2656 17.9333 19.7226L20.4133 17.2439L29.3333 19.2266V30.6666H28C22.8672 30.6746 17.8422 29.1944 13.5333 26.4052C10.3564 24.3491 7.65079 21.6436 5.59468 18.4666C2.80561 14.1577 1.32543 9.13267 1.33334 3.9999V2.66657ZM4.03601 5.33324C4.26032 9.49319 5.56998 13.5219 7.83468 17.0186C9.68584 19.8785 12.1215 22.3141 14.9813 24.1652C18.478 26.4301 22.5067 27.7397 26.6667 27.9639V21.3652L21.2627 20.1652L18.364 23.0652L17.48 22.5626C14.1236 20.655 11.3449 17.8763 9.43735 14.5199L8.93468 13.6359L11.8347 10.7372L10.6347 5.33324H4.03601ZM20.184 6.88657L21.472 7.23457C22.2596 7.44769 22.9775 7.86357 23.5542 8.44073C24.1309 9.01789 24.5462 9.73616 24.7587 10.5239L25.1053 11.8106L22.532 12.5052L22.184 11.2186C22.0928 10.8809 21.9147 10.5731 21.6674 10.3258C21.4201 10.0785 21.1123 9.90042 20.7747 9.80923L19.488 9.46124L20.184 6.88657Z" fill="black"/>
</g>
</svg>
