<svg width="26" height="26" viewBox="0 0 26 26" fill="none" xmlns="http://www.w3.org/2000/svg">
<g id="la:car-alt">
<path id="Vector" d="M7.71877 4.87501C6.64627 4.87501 5.69077 5.57376 5.38283 6.60157L4.26565 10.3342L2.69102 9.8012L2.18402 11.3238L3.78302 11.8576L3.27521 13.5842C3.25573 13.6587 3.24725 13.7356 3.25002 13.8125V20.3125C3.25002 20.7594 3.61565 21.125 4.06252 21.125H6.50002L6.77952 20.3125H19.2205L19.5 21.125H21.9375C22.3844 21.125 22.75 20.7594 22.75 20.3125V19.6268C22.7533 19.5861 22.7533 19.5414 22.75 19.5V13.8125C22.7528 13.7356 22.7443 13.6587 22.7248 13.5842L22.217 11.8576L23.816 11.3246L23.3082 9.80038L21.7344 10.3342L20.6172 6.60157C20.465 6.10103 20.1556 5.66282 19.7349 5.35184C19.3141 5.04087 18.8044 4.87367 18.2813 4.87501H7.71877ZM7.71877 6.50001H18.2813C18.6428 6.50001 18.9638 6.73807 19.0686 7.0842L20.1094 10.5625H5.89065L6.93146 7.0842C7.03708 6.73482 7.35721 6.50001 7.71877 6.50001ZM8.93752 10.5625C9.3685 10.5625 9.78182 10.3913 10.0866 10.0866C10.3913 9.78181 10.5625 9.36849 10.5625 8.93751C10.5625 8.50653 10.3913 8.09321 10.0866 7.78846C9.78182 7.48371 9.3685 7.31251 8.93752 7.31251C8.50654 7.31251 8.09322 7.48371 7.78847 7.78846C7.48373 8.09321 7.31252 8.50653 7.31252 8.93751C7.31252 9.36849 7.48373 9.78181 7.78847 10.0866C8.09322 10.3913 8.50654 10.5625 8.93752 10.5625ZM17.0625 10.5625C17.4935 10.5625 17.9068 10.3913 18.2116 10.0866C18.5163 9.78181 18.6875 9.36849 18.6875 8.93751C18.6875 8.50653 18.5163 8.09321 18.2116 7.78846C17.9068 7.48371 17.4935 7.31251 17.0625 7.31251C16.6315 7.31251 16.2182 7.48371 15.9135 7.78846C15.6087 8.09321 15.4375 8.50653 15.4375 8.93751C15.4375 9.36849 15.6087 9.78181 15.9135 10.0866C16.2182 10.3913 16.6315 10.5625 17.0625 10.5625ZM13 7.31251C12.84 7.31251 12.6815 7.34403 12.5336 7.40528C12.3858 7.46653 12.2514 7.5563 12.1382 7.66947C12.0251 7.78264 11.9353 7.917 11.874 8.06486C11.8128 8.21273 11.7813 8.37121 11.7813 8.53126C11.7813 8.69131 11.8128 8.84979 11.874 8.99765C11.9353 9.14552 12.0251 9.27987 12.1382 9.39305C12.2514 9.50622 12.3858 9.59599 12.5336 9.65724C12.6815 9.71848 12.84 9.75001 13 9.75001C13.3233 9.75001 13.6332 9.6216 13.8618 9.39305C14.0904 9.16449 14.2188 8.85449 14.2188 8.53126C14.2188 8.20803 14.0904 7.89803 13.8618 7.66947C13.6332 7.44091 13.3233 7.31251 13 7.31251ZM5.40802 12.1875H20.592L21.125 13.9653V18.6875H4.87502V13.9644L5.40802 12.1875ZM6.90627 13C6.58304 13 6.27304 13.1284 6.04448 13.357C5.81592 13.5855 5.68752 13.8955 5.68752 14.2188C5.68752 14.542 5.81592 14.852 6.04448 15.0805C6.27304 15.3091 6.58304 15.4375 6.90627 15.4375C7.2295 15.4375 7.5395 15.3091 7.76806 15.0805C7.99662 14.852 8.12502 14.542 8.12502 14.2188C8.12502 13.8955 7.99662 13.5855 7.76806 13.357C7.5395 13.1284 7.2295 13 6.90627 13ZM19.0938 13C18.7705 13 18.4605 13.1284 18.232 13.357C18.0034 13.5855 17.875 13.8955 17.875 14.2188C17.875 14.542 18.0034 14.852 18.232 15.0805C18.4605 15.3091 18.7705 15.4375 19.0938 15.4375C19.417 15.4375 19.727 15.3091 19.9556 15.0805C20.1841 14.852 20.3125 14.542 20.3125 14.2188C20.3125 13.8955 20.1841 13.5855 19.9556 13.357C19.727 13.1284 19.417 13 19.0938 13ZM9.75002 15.4375L8.73439 17.875H10.4861L10.842 17.0625H15.158L15.5139 17.875H17.2656L16.25 15.4375H9.75002Z" fill="black"/>
</g>
</svg>
