<svg width="54" height="54" viewBox="0 0 54 54" fill="none" xmlns="http://www.w3.org/2000/svg">
<g id="ri:customer-service-2-fill">
<path id="Vector" d="M47.25 18C48.4435 18 49.5881 18.4741 50.432 19.318C51.2759 20.162 51.75 21.3065 51.75 22.5V31.5C51.75 32.6935 51.2759 33.8381 50.432 34.682C49.5881 35.5259 48.4435 36 47.25 36H44.8605C44.312 40.3499 42.1948 44.3502 38.9064 47.25C35.618 50.1498 31.3844 51.7499 27 51.75V47.25C30.5804 47.25 34.0142 45.8277 36.5459 43.296C39.0777 40.7642 40.5 37.3304 40.5 33.75V20.25C40.5 16.6696 39.0777 13.2358 36.5459 10.7041C34.0142 8.17234 30.5804 6.75002 27 6.75002C23.4196 6.75002 19.9858 8.17234 17.4541 10.7041C14.9223 13.2358 13.5 16.6696 13.5 20.25V36H6.75C5.55653 36 4.41193 35.5259 3.56802 34.682C2.72411 33.8381 2.25 32.6935 2.25 31.5V22.5C2.25 21.3065 2.72411 20.162 3.56802 19.318C4.41193 18.4741 5.55653 18 6.75 18H9.1395C9.68857 13.6505 11.8059 9.65088 15.0943 6.75154C18.3827 3.8522 22.616 2.25244 27 2.25244C31.384 2.25244 35.6173 3.8522 38.9057 6.75154C42.1941 9.65088 44.3114 13.6505 44.8605 18H47.25ZM17.46 35.5163L19.845 31.7003C21.9894 33.0436 24.4696 33.7541 27 33.75C29.5304 33.7541 32.0106 33.0436 34.155 31.7003L36.54 35.5163C33.6808 37.3076 30.374 38.2552 27 38.25C23.626 38.2553 20.3191 37.3077 17.46 35.5163Z" fill="#FF6436"/>
</g>
</svg>
