<svg width="54" height="54" viewBox="0 0 54 54" fill="none" xmlns="http://www.w3.org/2000/svg">
<g id="mdi:deal-outline">
<path id="Vector" d="M48.8475 19.5975C51.66 16.785 50.3775 13.5 48.8475 11.9025L42.0975 5.15252C39.2625 2.34002 36 3.62252 34.4025 5.15252L30.5775 9.00002H24.75C20.475 9.00002 18 11.25 16.74 13.8375L6.75001 23.8275V32.8275L5.15251 34.4025C2.34001 37.2375 3.62251 40.5 5.15251 42.0975L11.9025 48.8475C13.1175 50.0625 14.4225 50.5125 15.66 50.5125C17.2575 50.5125 18.72 49.725 19.5975 48.8475L25.6725 42.75H33.75C37.575 42.75 39.51 40.365 40.2075 38.025C42.75 37.35 44.145 35.415 44.7075 33.525C48.195 32.625 49.5 29.3175 49.5 27V20.25H48.1725L48.8475 19.5975ZM45 27C45 28.0125 44.5725 29.25 42.75 29.25H40.5V31.5C40.5 32.5125 40.0725 33.75 38.25 33.75H36V36C36 37.0125 35.5725 38.25 33.75 38.25H23.8275L16.4475 45.63C15.75 46.2825 15.345 45.9 15.0975 45.6525L8.37001 38.9475C7.71751 38.25 8.10001 37.845 8.34751 37.5975L11.25 34.6725V25.6725L15.75 21.1725V24.75C15.75 27.4725 17.55 31.5 22.5 31.5C27.45 31.5 29.25 27.4725 29.25 24.75H45V27ZM45.6525 16.4025L41.8275 20.25H24.75V24.75C24.75 25.7625 24.3225 27 22.5 27C20.6775 27 20.25 25.7625 20.25 24.75V18C20.25 16.965 20.6325 13.5 24.75 13.5H32.4225L37.5525 8.37002C38.25 7.71752 38.655 8.10002 38.9025 8.34752L45.63 15.0525C46.2825 15.75 45.9 16.155 45.6525 16.4025Z" fill="#FF6436"/>
</g>
</svg>
