<svg width="32" height="32" viewBox="0 0 32 32" fill="none" xmlns="http://www.w3.org/2000/svg">
<g id="ooui:message">
<path id="Vector" d="M0 12.8V25.6C0 26.4487 0.337142 27.2627 0.937258 27.8628C1.53737 28.4629 2.35131 28.8 3.2 28.8H28.8C29.6487 28.8 30.4626 28.4629 31.0627 27.8628C31.6629 27.2627 32 26.4487 32 25.6V12.8L16 19.2L0 12.8Z" fill="white"/>
<path id="Vector_2" d="M3.2 3.19995C2.35131 3.19995 1.53737 3.53709 0.937258 4.13721C0.337142 4.73733 0 5.55126 0 6.39995L0 9.59995L16 16L32 9.59995V6.39995C32 5.55126 31.6629 4.73733 31.0627 4.13721C30.4626 3.53709 29.6487 3.19995 28.8 3.19995H3.2Z" fill="white"/>
</g>
</svg>
