<svg width="35" height="34" viewBox="0 0 35 34" fill="none" xmlns="http://www.w3.org/2000/svg">
<g id="ph:engine" clip-path="url(#clip0_1_374)">
<path id="Vector" d="M33.8022 13.8125C33.5205 13.8125 33.2502 13.9244 33.0509 14.1237C32.8517 14.323 32.7397 14.5932 32.7397 14.875V18.0625H30.6147V15.9375C30.6147 15.3739 30.3909 14.8334 29.9923 14.4349C29.5938 14.0364 29.0533 13.8125 28.4897 13.8125H26.8044L22.1147 9.12289C21.9181 8.92471 21.6841 8.76758 21.4262 8.66065C21.1684 8.55372 20.8918 8.49911 20.6126 8.5H17.8647V6.375H21.0522C21.334 6.375 21.6043 6.26306 21.8035 6.0638C22.0028 5.86454 22.1147 5.59429 22.1147 5.3125C22.1147 5.03071 22.0028 4.76046 21.8035 4.5612C21.6043 4.36194 21.334 4.25 21.0522 4.25H12.5522C12.2705 4.25 12.0002 4.36194 11.8009 4.5612C11.6017 4.76046 11.4897 5.03071 11.4897 5.3125C11.4897 5.59429 11.6017 5.86454 11.8009 6.0638C12.0002 6.26306 12.2705 6.375 12.5522 6.375H15.7397V8.5H7.23975C6.67616 8.5 6.13566 8.72388 5.73714 9.1224C5.33863 9.52091 5.11475 10.0614 5.11475 10.625V18.0625H2.98975V14.875C2.98975 14.5932 2.8778 14.323 2.67855 14.1237C2.47929 13.9244 2.20904 13.8125 1.92725 13.8125C1.64545 13.8125 1.3752 13.9244 1.17595 14.1237C0.976688 14.323 0.864746 14.5932 0.864746 14.875L0.864746 23.375C0.864746 23.6568 0.976688 23.927 1.17595 24.1263C1.3752 24.3256 1.64545 24.4375 1.92725 24.4375C2.20904 24.4375 2.47929 24.3256 2.67855 24.1263C2.8778 23.927 2.98975 23.6568 2.98975 23.375V20.1875H5.11475V22.9354C5.11385 23.2146 5.16846 23.4911 5.27539 23.749C5.38233 24.0068 5.53945 24.2409 5.73764 24.4375L10.4272 29.1271C10.6239 29.3253 10.8579 29.4824 11.1158 29.5894C11.3736 29.6963 11.6502 29.7509 11.9294 29.75H20.6126C20.8918 29.7509 21.1684 29.6963 21.4262 29.5894C21.6841 29.4824 21.9181 29.3253 22.1147 29.1271L26.8044 24.4375H28.4897C29.0533 24.4375 29.5938 24.2136 29.9923 23.8151C30.3909 23.4166 30.6147 22.8761 30.6147 22.3125V20.1875H32.7397V23.375C32.7397 23.6568 32.8517 23.927 33.0509 24.1263C33.2502 24.3256 33.5205 24.4375 33.8022 24.4375C34.084 24.4375 34.3543 24.3256 34.5535 24.1263C34.7528 23.927 34.8647 23.6568 34.8647 23.375V14.875C34.8647 14.5932 34.7528 14.323 34.5535 14.1237C34.3543 13.9244 34.084 13.8125 33.8022 13.8125ZM28.4897 22.3125H26.8044C26.5252 22.3116 26.2486 22.3662 25.9908 22.4731C25.7329 22.5801 25.4989 22.7372 25.3022 22.9354L20.6126 27.625H11.9294L7.23975 22.9354V10.625H20.6126L25.3022 15.3146C25.4989 15.5128 25.7329 15.6699 25.9908 15.7769C26.2486 15.8838 26.5252 15.9384 26.8044 15.9375H28.4897V22.3125Z" fill="black"/>
</g>
<defs>
<clipPath id="clip0_1_374">
<rect width="34" height="34" fill="white" transform="translate(0.864746)"/>
</clipPath>
</defs>
</svg>
