<svg width="24" height="24" viewBox="0 0 24 24" fill="none" xmlns="http://www.w3.org/2000/svg">
<g id="basil:google-outline">
<path id="Vector" fill-rule="evenodd" clip-rule="evenodd" d="M12 2.25C6.616 2.25 2.25 6.616 2.25 12C2.25 17.384 6.616 21.75 12 21.75C17.384 21.75 21.75 17.384 21.75 12C21.7491 11.3467 21.6855 10.6951 21.56 10.054C21.5262 9.88386 21.4345 9.73068 21.3005 9.62055C21.1665 9.51042 20.9985 9.45015 20.825 9.45H12C11.8011 9.45 11.6103 9.52902 11.4697 9.66967C11.329 9.81032 11.25 10.0011 11.25 10.2V13.8C11.25 14.214 11.586 14.55 12 14.55H15.883C15.5981 14.9829 15.2433 15.3654 14.833 15.682H14.831L14.833 15.684C14.0222 16.3117 13.0254 16.6516 12 16.65C10.7667 16.65 9.584 16.1601 8.71195 15.288C7.83991 14.416 7.35 13.2333 7.35 12C7.35 10.7667 7.83991 9.584 8.71195 8.71195C9.584 7.83991 10.7667 7.35 12 7.35C13.184 7.35 14.26 7.796 15.084 8.528C15.227 8.65523 15.4132 8.72299 15.6045 8.71742C15.7958 8.71184 15.9777 8.63334 16.113 8.498L18.658 5.952C18.7292 5.88078 18.7854 5.79596 18.8231 5.70257C18.8608 5.60919 18.8793 5.50917 18.8776 5.40847C18.8758 5.30777 18.8537 5.20846 18.8128 5.11646C18.7718 5.02446 18.7127 4.94166 18.639 4.873C16.8394 3.18725 14.4658 2.24946 12 2.25ZM15.202 17.25C14.4956 17.6814 13.7093 17.9656 12.8904 18.0857C12.0714 18.2059 11.2366 18.1594 10.4361 17.9491C9.63552 17.7388 8.88567 17.369 8.23148 16.8619C7.5773 16.3548 7.03224 15.7208 6.629 14.998L4.952 16.29C5.68795 17.4996 6.72299 18.4994 7.95742 19.193C9.19184 19.8865 10.5841 20.2506 12 20.25C13.821 20.25 15.505 19.66 16.87 18.66L15.202 17.25ZM18.005 17.656C19.4492 16.1272 20.2527 14.1031 20.25 12C20.25 11.652 20.227 11.296 20.185 10.95H12.75V13.05H17.086C17.206 13.05 17.3242 13.0788 17.4307 13.134C17.5373 13.1891 17.629 13.2691 17.6983 13.367C17.7676 13.465 17.8123 13.5781 17.8288 13.697C17.8453 13.8158 17.833 13.9369 17.793 14.05C17.4952 14.8905 17.0185 15.6565 16.396 16.295L18.005 17.656ZM5.02 7.601C5.76291 6.42127 6.79287 5.44921 8.01357 4.77572C9.23428 4.10224 10.6058 3.74933 12 3.75C13.892 3.75 15.63 4.392 17.023 5.466L15.523 6.966C14.4922 6.23897 13.2614 5.8491 12 5.85C10.9356 5.84958 9.88933 6.12555 8.96361 6.6509C8.03789 7.17625 7.26445 7.93298 6.719 8.847L5.02 7.601ZM4.33 8.955C3.94547 9.92408 3.74865 10.9574 3.75 12C3.74899 12.9954 3.92857 13.9827 4.28 14.914L6.047 13.552C5.91564 13.0451 5.84944 12.5236 5.85 12C5.85 11.394 5.938 10.808 6.101 10.254L4.33 8.955Z" fill="white"/>
</g>
</svg>
