<svg width="62" height="62" viewBox="0 0 62 62" fill="none" xmlns="http://www.w3.org/2000/svg">
<g id="mdi:location">
<path id="Vector" d="M31 29.7084C29.2872 29.7084 27.6445 29.028 26.4333 27.8168C25.2221 26.6056 24.5417 24.9629 24.5417 23.2501C24.5417 21.5372 25.2221 19.8945 26.4333 18.6833C27.6445 17.4722 29.2872 16.7917 31 16.7917C32.7129 16.7917 34.3556 17.4722 35.5667 18.6833C36.7779 19.8945 37.4583 21.5372 37.4583 23.2501C37.4583 24.0982 37.2913 24.938 36.9667 25.7216C36.6422 26.5051 36.1665 27.2171 35.5667 27.8168C34.967 28.4165 34.2551 28.8922 33.4715 29.2168C32.688 29.5414 31.8481 29.7084 31 29.7084ZM31 5.16675C26.204 5.16675 21.6045 7.07195 18.2132 10.4632C14.8219 13.8545 12.9167 18.4541 12.9167 23.2501C12.9167 36.8126 31 56.8334 31 56.8334C31 56.8334 49.0833 36.8126 49.0833 23.2501C49.0833 18.4541 47.1781 13.8545 43.7869 10.4632C40.3956 7.07195 35.796 5.16675 31 5.16675Z" fill="#FF6436"/>
</g>
</svg>
