<svg width="62" height="62" viewBox="0 0 62 62" fill="none" xmlns="http://www.w3.org/2000/svg">
<g id="material-symbols:book">
<path id="Vector" d="M15.5 56.8334C14.0791 56.8334 12.8633 56.3279 11.8523 55.317C10.8414 54.3061 10.335 53.0893 10.3333 51.6667V10.3334C10.3333 8.91258 10.8396 7.69669 11.8523 6.68575C12.865 5.6748 14.0809 5.16847 15.5 5.16675H46.5C47.9208 5.16675 49.1376 5.67308 50.1502 6.68575C51.1629 7.69841 51.6684 8.9143 51.6666 10.3334V51.6667C51.6666 53.0876 51.1612 54.3043 50.1502 55.317C49.1393 56.3297 47.9225 56.8351 46.5 56.8334H15.5ZM28.4166 28.4167L34.875 24.5417L41.3333 28.4167V10.3334H28.4166V28.4167Z" fill="#FF6436"/>
</g>
</svg>
