<svg width="26" height="26" viewBox="0 0 26 26" fill="none" xmlns="http://www.w3.org/2000/svg">
<g id="mdi:petrol-pump">
<path id="Vector" d="M19.5 10.8333C19.2127 10.8333 18.9371 10.7192 18.734 10.516C18.5308 10.3129 18.4167 10.0373 18.4167 9.75C18.4167 9.46268 18.5308 9.18713 18.734 8.98397C18.9371 8.7808 19.2127 8.66667 19.5 8.66667C19.7873 8.66667 20.0629 8.7808 20.266 8.98397C20.4692 9.18713 20.5833 9.46268 20.5833 9.75C20.5833 10.0373 20.4692 10.3129 20.266 10.516C20.0629 10.7192 19.7873 10.8333 19.5 10.8333ZM13 10.8333H6.50001V5.41667H13M21.4175 7.8325L21.4283 7.82167L17.3983 3.79167L16.25 4.94L18.5358 7.22583C17.5175 7.58333 16.7917 8.59083 16.7917 9.75C16.7917 10.1057 16.8617 10.4578 16.9978 10.7864C17.1339 11.115 17.3334 11.4136 17.5849 11.6651C18.0928 12.173 18.7817 12.4583 19.5 12.4583C19.89 12.4583 20.2475 12.3717 20.5833 12.2308V20.0417C20.5833 20.329 20.4692 20.6045 20.266 20.8077C20.0629 21.0109 19.7873 21.125 19.5 21.125C19.2127 21.125 18.9371 21.0109 18.734 20.8077C18.5308 20.6045 18.4167 20.329 18.4167 20.0417V15.1667C18.4167 14.592 18.1884 14.0409 17.7821 13.6346C17.3757 13.2283 16.8246 13 16.25 13H15.1667V5.41667C15.1667 4.84203 14.9384 4.29093 14.5321 3.8846C14.1257 3.47827 13.5746 3.25 13 3.25H6.50001C5.29751 3.25 4.33334 4.21417 4.33334 5.41667V22.75H15.1667V14.625H16.7917V20.0417C16.7917 20.76 17.077 21.4488 17.5849 21.9567C18.0928 22.4647 18.7817 22.75 19.5 22.75C19.8557 22.75 20.2079 22.6799 20.5364 22.5438C20.865 22.4077 21.1636 22.2082 21.4151 21.9567C21.6666 21.7053 21.8661 21.4067 22.0022 21.0781C22.1383 20.7495 22.2083 20.3973 22.2083 20.0417V9.75C22.2083 9.0025 21.905 8.32 21.4175 7.8325Z" fill="black"/>
</g>
</svg>
