<svg width="44" height="44" viewBox="0 0 44 44" fill="none" xmlns="http://www.w3.org/2000/svg">
<g id="ph:heart-fill">
<path id="Vector" d="M22.4175 37.8862L22.4145 37.8878C22.2871 37.9563 22.1447 37.9922 22 37.9922C21.8553 37.9922 21.7129 37.9563 21.5855 37.8878L21.5825 37.8862C21.2196 37.6941 16.6076 35.1799 12.0938 31.2269C7.55379 27.251 3.25014 21.9381 3.25 16.1565C3.25311 13.4638 4.32417 10.8823 6.22821 8.97821C8.13226 7.07417 10.7138 6.00311 13.4065 6C16.8095 6.00008 19.7641 7.46098 21.6002 9.90631L22 10.4388L22.3998 9.90631C24.2359 7.46098 27.1905 6.00008 30.5935 6C33.2862 6.00311 35.8677 7.07417 37.7718 8.97821C39.6759 10.8823 40.747 13.464 40.75 16.1568C40.7497 21.9383 36.4461 27.251 31.9062 31.2269C27.3924 35.1799 22.7804 37.6941 22.4175 37.8862Z" stroke="black"/>
</g>
</svg>
