<svg width="54" height="54" viewBox="0 0 54 54" fill="none" xmlns="http://www.w3.org/2000/svg">
<g id="ri:handbag-fill">
<path id="Vector" d="M27 4.5C31.1772 4.5 35.1832 6.15937 38.1369 9.11307C41.0906 12.0668 42.75 16.0728 42.75 20.25H45.1665C45.7332 20.25 46.2791 20.4639 46.695 20.8489C47.1108 21.2339 47.3661 21.7617 47.4097 22.3268L49.3132 47.0768C49.3592 47.6717 49.1669 48.2605 48.7787 48.7137C48.3905 49.1669 47.8382 49.4473 47.2432 49.4932L47.07 49.5H6.92999C6.33326 49.5 5.76096 49.2629 5.339 48.841C4.91705 48.419 4.67999 47.8467 4.67999 47.25L4.68674 47.0768L6.59024 22.3268C6.63388 21.7617 6.88915 21.2339 7.30503 20.8489C7.7209 20.4639 8.26676 20.25 8.83349 20.25H11.25C11.25 16.0728 12.9094 12.0668 15.8631 9.11307C18.8168 6.15937 22.8228 4.5 27 4.5ZM31.5 29.25H22.5V33.75H31.5V29.25ZM27 9C24.101 9.00017 21.3139 10.1195 19.22 12.1245C17.1261 14.1295 15.8871 16.8654 15.7612 19.7617L15.75 20.25H38.25C38.2498 17.351 37.1305 14.5639 35.1255 12.47C33.1205 10.3761 30.3846 9.13707 27.4882 9.01125L27 9Z" fill="#FF6436"/>
</g>
</svg>
