<svg width="24" height="24" viewBox="0 0 24 24" fill="none" xmlns="http://www.w3.org/2000/svg">
<g id="basil:snapchat-outline">
<path id="Vector" fill-rule="evenodd" clip-rule="evenodd" d="M22.364 17.7071C22.038 18.5131 21.272 18.8901 20.836 19.0671C20.4998 19.201 20.1538 19.309 19.801 19.3901L19.778 19.4781C19.6872 19.8635 19.4696 20.2072 19.16 20.4541C18.8364 20.7119 18.4315 20.8459 18.018 20.8321H18.003L17.972 20.8311C17.7524 20.8218 17.5341 20.792 17.32 20.7421C17.097 20.6932 16.8694 20.6681 16.641 20.6671C16.511 20.6671 16.381 20.6771 16.248 20.6971C15.9851 20.7788 15.7429 20.9162 15.538 21.1001C14.6167 21.9415 13.4312 22.4358 12.185 22.4981L12.15 22.5001H12.114C12.076 22.5001 12.032 22.5001 11.986 22.4981C11.952 22.4995 11.918 22.5001 11.884 22.5001H11.85L11.817 22.4981C10.5704 22.4364 9.38438 21.9421 8.46303 21.1001C8.25808 20.9171 8.01633 20.78 7.75403 20.6981C7.62403 20.6781 7.49403 20.6681 7.36403 20.6681C7.14003 20.6701 6.91703 20.6981 6.69703 20.7481C6.49703 20.7971 6.29303 20.8281 6.08703 20.8421C5.65398 20.8791 5.22265 20.7536 4.87703 20.4901C4.54993 20.2416 4.31887 19.8876 4.22303 19.4881C4.21482 19.4558 4.20682 19.4235 4.19903 19.3911C3.84628 19.3105 3.50026 19.2028 3.16403 19.0691C2.72803 18.8901 1.96403 18.5131 1.63903 17.7111C1.56082 17.519 1.51487 17.3152 1.50303 17.1081V17.0961C1.4821 16.6888 1.60491 16.2871 1.85003 15.9611C2.09903 15.6311 2.46903 15.3891 2.90203 15.3081C3.66536 15.1519 4.34372 14.7183 4.80603 14.0911L4.82203 14.0701L4.83803 14.0501C5.05503 13.7821 5.24803 13.4901 5.41103 13.1791C5.30455 13.1442 5.19947 13.1052 5.09603 13.0621C4.75591 12.9227 4.43817 12.734 4.15303 12.5021C3.84803 12.2461 3.20703 11.5761 3.38803 10.5631L3.41103 10.4371L3.45503 10.3171C3.61442 9.87371 3.90671 9.49028 4.29203 9.2191C4.68387 8.94378 5.15434 8.80275 5.63303 8.8171C5.60603 7.7501 5.72303 6.6821 5.98303 5.6471L6.00903 5.5421L6.05003 5.4421C6.52211 4.28122 7.322 3.28292 8.35203 2.5691C9.37024 1.86501 10.5811 1.4927 11.819 1.5031L12.163 1.5001C13.4059 1.48676 14.6223 1.85882 15.645 2.5651C16.6763 3.27865 17.4775 4.27691 17.951 5.4381L17.992 5.5381L18.019 5.6441C18.2775 6.67685 18.3949 7.73984 18.368 8.8041H18.376C18.657 8.8041 18.933 8.8571 19.191 8.9551C19.559 9.0751 19.881 9.2931 20.126 9.5771C20.399 9.8931 20.569 10.2771 20.627 10.6781L20.641 10.7711L20.642 10.8651C20.663 11.9951 19.792 12.6881 18.902 13.0631L18.891 13.0681C18.7899 13.109 18.6875 13.1467 18.584 13.1811C18.834 13.6671 19.164 14.0951 19.555 14.4451C20.031 14.8701 20.585 15.1681 21.171 15.3231C21.575 15.4171 21.919 15.6531 22.153 15.9661C22.402 16.2981 22.518 16.7001 22.498 17.0981V17.1041C22.4867 17.3111 22.4415 17.5148 22.364 17.7071ZM20.972 17.1451C20.9881 17.1056 20.9976 17.0637 21 17.0211C21.003 16.9652 20.9864 16.91 20.953 16.8651C20.9208 16.8216 20.8733 16.7919 20.82 16.7821C20.7049 16.7523 20.5909 16.7186 20.478 16.6811L20.474 16.6791C20.1836 16.583 19.9019 16.4622 19.632 16.3181C19.2447 16.1103 18.8835 15.8572 18.556 15.5641C17.8924 14.9673 17.3727 14.2277 17.036 13.4011L17.031 13.3891C16.9568 13.26 16.9104 13.1168 16.8948 12.9687C16.8791 12.8206 16.8945 12.6709 16.94 12.5291C17.0138 12.3601 17.1363 12.217 17.292 12.1181L17.342 12.0851C17.574 11.9381 17.85 11.8451 18.066 11.7721L18.106 11.7591L18.116 11.7561L18.127 11.7521C18.1919 11.73 18.2563 11.7064 18.32 11.6811L18.346 11.6701L18.364 11.6621H18.366C18.4789 11.6126 18.5885 11.5558 18.694 11.4921C19.061 11.2671 19.145 11.0491 19.142 10.8921C19.1247 10.7691 19.0727 10.6536 18.992 10.5591C18.9135 10.4676 18.8088 10.4023 18.692 10.3721L18.686 10.3691C18.5511 10.3119 18.4033 10.2918 18.258 10.3111C18.1985 10.3207 18.1406 10.3385 18.086 10.3641C18.0023 10.4089 17.9158 10.4483 17.827 10.4821L17.817 10.4861C17.7645 10.5064 17.7111 10.5244 17.657 10.5401L17.651 10.5411C17.512 10.5814 17.3693 10.6075 17.225 10.6191C17.0504 10.6236 16.8804 10.563 16.748 10.4491L16.776 9.9391L16.78 9.8781C16.9535 8.58638 16.8802 7.27349 16.564 6.0091C16.2015 5.1171 15.5872 4.34989 14.796 3.8011C14.0272 3.26987 13.1125 2.99035 12.178 3.0011L11.816 3.0031C10.8823 2.9931 9.96857 3.27334 9.20103 3.8051C8.41122 4.3539 7.79828 5.12078 7.43703 6.0121C7.12132 7.2745 7.04769 8.58529 7.22003 9.8751C7.23203 10.0661 7.24303 10.2581 7.25303 10.4491C7.10598 10.5712 6.91777 10.6324 6.72703 10.6201C6.59762 10.6141 6.46906 10.596 6.34303 10.5661L6.33603 10.5651C6.15426 10.5213 5.97908 10.4538 5.81503 10.3641C5.74609 10.3312 5.67042 10.3147 5.59403 10.3161C5.43628 10.3098 5.28089 10.3559 5.15203 10.4471C5.01955 10.5412 4.91933 10.6739 4.86503 10.8271C4.82103 11.0751 5.00203 11.2821 5.22803 11.4381L5.28803 11.4781C5.41258 11.5576 5.54412 11.6255 5.68103 11.6811C5.7644 11.7158 5.84951 11.7462 5.93603 11.7721C6.18816 11.8498 6.43096 11.9551 6.66003 12.0861C6.67903 12.0971 6.69603 12.1091 6.71403 12.1211C6.8676 12.2197 6.98838 12.3617 7.06103 12.5291C7.10541 12.6714 7.12014 12.8214 7.10432 12.9696C7.08849 13.1179 7.04245 13.2613 6.96903 13.3911L6.96603 13.4011C6.71937 13.9739 6.39535 14.5103 6.00303 14.9951C5.55893 15.5868 4.98303 16.0668 4.32103 16.3971C3.96103 16.5751 3.57803 16.7051 3.18103 16.7821C3.12779 16.7919 3.08026 16.8216 3.04803 16.8651C3.01429 16.9099 2.99731 16.9651 3.00003 17.0211C3.00263 17.0641 3.01243 17.1064 3.02903 17.1461C3.0901 17.2771 3.18857 17.387 3.31203 17.4621C3.51203 17.6001 3.80603 17.7261 4.18903 17.8381C4.30303 17.8711 4.42503 17.9031 4.55503 17.9341C4.78703 17.9891 5.04503 18.0401 5.32503 18.0861C5.45103 18.1061 5.50503 18.3261 5.57803 18.6831C5.60703 18.8331 5.64103 18.9811 5.68003 19.1281C5.6933 19.1948 5.73023 19.2545 5.78403 19.2961C5.83703 19.3361 5.90303 19.3551 5.96703 19.3461C6.09703 19.3391 6.22403 19.3201 6.35003 19.2891C6.68061 19.212 7.0186 19.1711 7.35803 19.1671C7.60103 19.1671 7.84503 19.1891 8.08503 19.2331C8.59735 19.3723 9.06997 19.6295 9.46503 19.9841C10.1292 20.5947 10.9859 20.9541 11.887 21.0001C11.917 21.0001 11.947 20.9991 11.977 20.9961C12.014 20.9991 12.063 21.0001 12.114 21.0001C13.0151 20.9541 13.8718 20.5947 14.536 19.9841C14.9313 19.6298 15.4038 19.3726 15.916 19.2331C16.156 19.1891 16.399 19.1671 16.644 19.1671C16.9835 19.1682 17.3218 19.2061 17.653 19.2801C17.778 19.3101 17.906 19.3271 18.033 19.3321H18.055C18.1163 19.3372 18.1771 19.3186 18.225 19.2801C18.275 19.2399 18.3091 19.1832 18.321 19.1201C18.3603 18.9744 18.3943 18.8273 18.423 18.6791C18.496 18.3231 18.55 18.1051 18.675 18.0841C18.981 18.0341 19.259 17.9781 19.507 17.9181C19.614 17.8921 19.715 17.8641 19.811 17.8371C20.161 17.7341 20.438 17.6201 20.636 17.4951C20.6966 17.4562 20.7544 17.4131 20.809 17.3661C20.879 17.3062 20.9347 17.2314 20.972 17.1471V17.1451Z" fill="white"/>
</g>
</svg>
