<svg width="32" height="32" viewBox="0 0 32 32" fill="none" xmlns="http://www.w3.org/2000/svg">
<g id="material-symbols:auto-transmission-outline">
<path id="Vector" d="M5.33334 28C4.22223 28 3.27779 27.6111 2.50001 26.8333C1.72223 26.0556 1.33334 25.1111 1.33334 24C1.33334 23.1333 1.58357 22.3556 2.08401 21.6667C2.58445 20.9778 3.22312 20.5 4.00001 20.2333V11.7667C3.22223 11.5 2.58357 11.0222 2.08401 10.3333C1.58445 9.64444 1.33423 8.86667 1.33334 8C1.33334 6.88889 1.72223 5.94444 2.50001 5.16667C3.27779 4.38889 4.22223 4 5.33334 4C6.44445 4 7.3889 4.38889 8.16668 5.16667C8.94445 5.94444 9.33334 6.88889 9.33334 8C9.33334 8.86667 9.08356 9.64444 8.58401 10.3333C8.08445 11.0222 7.44534 11.5 6.66668 11.7667V14.6667H14.6667V11.7667C13.8889 11.5 13.2502 11.0222 12.7507 10.3333C12.2511 9.64444 12.0009 8.86667 12 8C12 6.88889 12.3889 5.94444 13.1667 5.16667C13.9445 4.38889 14.8889 4 16 4C17.1111 4 18.0556 4.38889 18.8333 5.16667C19.6111 5.94444 20 6.88889 20 8C20 8.86667 19.7502 9.64444 19.2507 10.3333C18.7511 11.0222 18.112 11.5 17.3333 11.7667V14.6667H24C24.3778 14.6667 24.6947 14.5391 24.9507 14.284C25.2067 14.0289 25.3342 13.712 25.3333 13.3333V11.7667C24.5556 11.5 23.9169 11.0222 23.4173 10.3333C22.9178 9.64444 22.6676 8.86667 22.6667 8C22.6667 6.88889 23.0556 5.94444 23.8333 5.16667C24.6111 4.38889 25.5556 4 26.6667 4C27.7778 4 28.7222 4.38889 29.5 5.16667C30.2778 5.94444 30.6667 6.88889 30.6667 8C30.6667 8.86667 30.4169 9.64444 29.9173 10.3333C29.4178 11.0222 28.7787 11.5 28 11.7667V13.3333C28 14.4444 27.6111 15.3889 26.8333 16.1667C26.0556 16.9444 25.1111 17.3333 24 17.3333H17.3333V20.2333C18.1111 20.5 18.7502 20.9778 19.2507 21.6667C19.7511 22.3556 20.0009 23.1333 20 24C20 25.1111 19.6111 26.0556 18.8333 26.8333C18.0556 27.6111 17.1111 28 16 28C14.8889 28 13.9445 27.6111 13.1667 26.8333C12.3889 26.0556 12 25.1111 12 24C12 23.1333 12.2502 22.3556 12.7507 21.6667C13.2511 20.9778 13.8898 20.5 14.6667 20.2333V17.3333H6.66668V20.2333C7.44445 20.5 8.08356 20.9778 8.58401 21.6667C9.08445 22.3556 9.33423 23.1333 9.33334 24C9.33334 25.1111 8.94445 26.0556 8.16668 26.8333C7.3889 27.6111 6.44445 28 5.33334 28ZM5.33334 25.3333C5.71112 25.3333 6.02801 25.2053 6.28401 24.9493C6.54001 24.6933 6.66756 24.3769 6.66668 24C6.66668 23.6222 6.53868 23.3058 6.28268 23.0507C6.02668 22.7956 5.71023 22.6676 5.33334 22.6667C4.95557 22.6667 4.63912 22.7947 4.38401 23.0507C4.1289 23.3067 4.0009 23.6231 4.00001 24C4.00001 24.3778 4.12801 24.6947 4.38401 24.9507C4.64001 25.2067 4.95645 25.3342 5.33334 25.3333ZM5.33334 9.33333C5.71112 9.33333 6.02801 9.20533 6.28401 8.94933C6.54001 8.69333 6.66756 8.37689 6.66668 8C6.66668 7.62222 6.53868 7.30578 6.28268 7.05067C6.02668 6.79556 5.71023 6.66756 5.33334 6.66667C4.95557 6.66667 4.63912 6.79467 4.38401 7.05067C4.1289 7.30667 4.0009 7.62311 4.00001 8C4.00001 8.37778 4.12801 8.69467 4.38401 8.95067C4.64001 9.20667 4.95645 9.33422 5.33334 9.33333ZM16 25.3333C16.3778 25.3333 16.6947 25.2053 16.9507 24.9493C17.2067 24.6933 17.3342 24.3769 17.3333 24C17.3333 23.6222 17.2053 23.3058 16.9493 23.0507C16.6933 22.7956 16.3769 22.6676 16 22.6667C15.6222 22.6667 15.3058 22.7947 15.0507 23.0507C14.7956 23.3067 14.6676 23.6231 14.6667 24C14.6667 24.3778 14.7947 24.6947 15.0507 24.9507C15.3067 25.2067 15.6231 25.3342 16 25.3333ZM16 9.33333C16.3778 9.33333 16.6947 9.20533 16.9507 8.94933C17.2067 8.69333 17.3342 8.37689 17.3333 8C17.3333 7.62222 17.2053 7.30578 16.9493 7.05067C16.6933 6.79556 16.3769 6.66756 16 6.66667C15.6222 6.66667 15.3058 6.79467 15.0507 7.05067C14.7956 7.30667 14.6676 7.62311 14.6667 8C14.6667 8.37778 14.7947 8.69467 15.0507 8.95067C15.3067 9.20667 15.6231 9.33422 16 9.33333ZM26.6667 9.33333C27.0445 9.33333 27.3613 9.20533 27.6173 8.94933C27.8733 8.69333 28.0009 8.37689 28 8C28 7.62222 27.872 7.30578 27.616 7.05067C27.36 6.79556 27.0436 6.66756 26.6667 6.66667C26.2889 6.66667 25.9725 6.79467 25.7173 7.05067C25.4622 7.30667 25.3342 7.62311 25.3333 8C25.3333 8.37778 25.4613 8.69467 25.7173 8.95067C25.9733 9.20667 26.2898 9.33422 26.6667 9.33333Z" fill="black"/>
</g>
</svg>
