<svg width="24" height="24" viewBox="0 0 24 24" fill="none" xmlns="http://www.w3.org/2000/svg">
<g id="mingcute:twitter-line">
<g id="Group">
<path id="Vector" fill-rule="evenodd" clip-rule="evenodd" d="M17.817 6.9889C17.464 6.4809 16.52 5.7669 14.991 6.0749C14.099 6.2539 13.566 6.6949 13.227 7.2769C12.866 7.8969 12.691 8.7399 12.691 9.7209C12.691 9.98612 12.5856 10.2405 12.3981 10.428C12.2106 10.6155 11.9562 10.7209 11.691 10.7209C9.32498 10.7209 7.07298 10.0179 5.17798 8.1169C5.03491 8.8882 4.97856 9.67308 5.00998 10.4569C5.06298 11.5429 5.32198 12.6319 5.93698 13.5649C6.54198 14.4819 7.53698 15.3219 9.20098 15.8499C9.36404 15.9016 9.51109 15.9943 9.6281 16.1191C9.7451 16.2439 9.82814 16.3966 9.86927 16.5626C9.91041 16.7287 9.90826 16.9025 9.86304 17.0675C9.81782 17.2324 9.73103 17.383 9.61098 17.5049C9.07798 18.0516 8.4739 18.5242 7.81498 18.9099C8.87498 19.0199 9.89698 19.0279 10.845 18.9419C12.765 18.7679 14.294 18.2189 15.25 17.4419C17.263 15.8099 18.34 13.3759 18.14 9.2979C18.106 8.6279 18.753 7.9049 19.065 7.3559C18.594 7.4439 18.122 7.4279 17.817 6.9889ZM4.59398 4.9839C4.77504 4.96286 4.9584 4.99171 5.12425 5.06732C5.29009 5.14293 5.43212 5.26243 5.53498 5.4129C7.01098 7.5719 8.78298 8.4699 10.75 8.6739C10.846 7.8329 11.073 7.0019 11.5 6.2699C12.126 5.1959 13.144 4.4059 14.598 4.1139C16.608 3.7099 18.138 4.4379 19.025 5.3289L20.817 4.9939C21.0045 4.95877 21.1982 4.97801 21.3751 5.04935C21.552 5.1207 21.7049 5.24117 21.8156 5.39655C21.9263 5.55193 21.9902 5.73574 21.9999 5.92628C22.0095 6.11682 21.9644 6.30614 21.87 6.4719L20.15 9.4939C20.307 13.8549 19.095 16.8989 16.511 18.9959C15.141 20.1079 13.179 20.7389 11.026 20.9339C8.85598 21.1299 6.40298 20.8929 3.96498 20.1809C3.75667 20.1201 3.57378 19.9933 3.44391 19.8194C3.31403 19.6456 3.24422 19.4343 3.24501 19.2173C3.2458 19.0003 3.31715 18.7894 3.44829 18.6166C3.57943 18.4437 3.76324 18.3181 3.97198 18.2589C5.19798 17.9099 6.13198 17.6089 6.97498 17.0819C5.77598 16.4459 4.89298 15.6139 4.26798 14.6659C3.39998 13.3479 3.07798 11.8779 3.01398 10.5529C2.94998 9.2279 3.14098 7.9999 3.34298 7.1149C3.45798 6.6099 3.59198 6.1039 3.77698 5.6199C3.84224 5.44929 3.95298 5.29982 4.09719 5.1877C4.24139 5.07558 4.41255 5.0051 4.59398 4.9839Z" fill="white"/>
</g>
</g>
</svg>
